<mxfile host="app.diagrams.net" modified="2024-04-24T22:40:19.683Z" agent="Mozilla/5.0 (Windows NT 10.0; Win64; x64) AppleWebKit/537.36 (KHTML, like Gecko) Chrome/124.0.0.0 Safari/537.36 Edg/124.0.0.0" etag="e-5qnoFAdzw4IMx_UvJw" version="24.3.0" type="github">
  <diagram name="Page-1" id="bldviGOM2PhAeHIemhQr">
    <mxGraphModel dx="1599" dy="437" grid="1" gridSize="10" guides="1" tooltips="1" connect="1" arrows="1" fold="1" page="1" pageScale="1" pageWidth="850" pageHeight="1100" math="0" shadow="0">
      <root>
        <mxCell id="0" />
        <mxCell id="1" parent="0" />
        <mxCell id="jSoYXtQaay7fsIpfsQkB-14" value="" style="verticalLabelPosition=bottom;verticalAlign=top;html=1;shape=mxgraph.basic.layered_rect;dx=10;outlineConnect=0;whiteSpace=wrap;fillColor=#d5e8d4;strokeColor=#82b366;" parent="1" vertex="1">
          <mxGeometry x="117.5" y="500" width="55" height="50" as="geometry" />
        </mxCell>
        <mxCell id="jSoYXtQaay7fsIpfsQkB-16" value="&lt;font face=&quot;Work sans&quot;&gt;&lt;b&gt;&lt;i&gt;Firm formalities&lt;/i&gt;&lt;/b&gt;&lt;/font&gt;" style="text;html=1;align=center;verticalAlign=middle;resizable=0;points=[];autosize=1;strokeColor=none;fillColor=none;" parent="1" vertex="1">
          <mxGeometry x="85" y="470" width="120" height="30" as="geometry" />
        </mxCell>
        <mxCell id="jSoYXtQaay7fsIpfsQkB-38" value="&lt;i style=&quot;font-family: &amp;quot;Work sans&amp;quot;;&quot;&gt;&lt;b&gt;XML&lt;/b&gt;&lt;/i&gt;" style="text;html=1;align=center;verticalAlign=middle;resizable=0;points=[];autosize=1;strokeColor=none;fillColor=none;" parent="1" vertex="1">
          <mxGeometry x="117.5" y="508.75" width="50" height="30" as="geometry" />
        </mxCell>
        <mxCell id="VBAkpBCVjeTr1UJTXE4Z-3" value="" style="shape=note;whiteSpace=wrap;html=1;backgroundOutline=1;darkOpacity=0.05;fillColor=#d5e8d4;strokeColor=#82b366;" vertex="1" parent="1">
          <mxGeometry x="110" y="600" width="80" height="100" as="geometry" />
        </mxCell>
        <mxCell id="VBAkpBCVjeTr1UJTXE4Z-4" value="&lt;font face=&quot;Work sans&quot;&gt;&lt;b&gt;&lt;i&gt;Activity&amp;nbsp;&lt;/i&gt;&lt;/b&gt;&lt;/font&gt;&lt;div&gt;&lt;font face=&quot;Work sans&quot;&gt;&lt;b&gt;&lt;i&gt;d&lt;/i&gt;&lt;/b&gt;&lt;/font&gt;&lt;b style=&quot;font-family: &amp;quot;Work sans&amp;quot;; background-color: initial;&quot;&gt;&lt;i&gt;escription&lt;/i&gt;&lt;/b&gt;&lt;/div&gt;" style="text;html=1;align=center;verticalAlign=middle;resizable=0;points=[];autosize=1;strokeColor=none;fillColor=none;" vertex="1" parent="1">
          <mxGeometry x="100" y="624.38" width="90" height="40" as="geometry" />
        </mxCell>
        <mxCell id="VBAkpBCVjeTr1UJTXE4Z-10" value="" style="html=1;verticalLabelPosition=bottom;align=center;labelBackgroundColor=#ffffff;verticalAlign=top;strokeWidth=2;strokeColor=#d79b00;shadow=0;dashed=0;shape=mxgraph.ios7.icons.compose;fillColor=#ffe6cc;" vertex="1" parent="1">
          <mxGeometry x="32.5" y="573.13" width="44.1" height="51.25" as="geometry" />
        </mxCell>
        <mxCell id="VBAkpBCVjeTr1UJTXE4Z-11" value="" style="html=1;verticalLabelPosition=bottom;align=center;labelBackgroundColor=#ffffff;verticalAlign=top;strokeWidth=2;strokeColor=#0080F0;shadow=0;dashed=0;shape=mxgraph.ios7.icons.forward;direction=north;" vertex="1" parent="1">
          <mxGeometry x="136.6" y="558.75" width="16.8" height="30" as="geometry" />
        </mxCell>
        <mxCell id="VBAkpBCVjeTr1UJTXE4Z-13" value="" style="endArrow=none;dashed=1;html=1;dashPattern=1 3;strokeWidth=1.5;rounded=0;curved=0;" edge="1" parent="1">
          <mxGeometry width="50" height="50" relative="1" as="geometry">
            <mxPoint x="240" y="720" as="sourcePoint" />
            <mxPoint x="240" y="440" as="targetPoint" />
          </mxGeometry>
        </mxCell>
        <mxCell id="VBAkpBCVjeTr1UJTXE4Z-14" value="" style="shape=message;html=1;html=1;outlineConnect=0;labelPosition=center;verticalLabelPosition=bottom;align=center;verticalAlign=top;fillColor=#f8cecc;strokeColor=#b85450;" vertex="1" parent="1">
          <mxGeometry x="340" y="600" width="120" height="60" as="geometry" />
        </mxCell>
        <mxCell id="VBAkpBCVjeTr1UJTXE4Z-15" value="" style="sketch=0;pointerEvents=1;shadow=0;dashed=0;html=1;strokeColor=#666666;fillColor=#f5f5f5;labelPosition=center;verticalLabelPosition=bottom;verticalAlign=top;outlineConnect=0;align=center;shape=mxgraph.office.users.approver;fontColor=#333333;" vertex="1" parent="1">
          <mxGeometry x="345" y="310" width="59" height="55" as="geometry" />
        </mxCell>
        <mxCell id="VBAkpBCVjeTr1UJTXE4Z-16" value="&lt;font face=&quot;Work sans&quot;&gt;&lt;i&gt;&lt;b&gt;Enterprise&lt;/b&gt;&lt;/i&gt;&lt;/font&gt;" style="text;html=1;align=center;verticalAlign=middle;resizable=0;points=[];autosize=1;strokeColor=none;fillColor=none;" vertex="1" parent="1">
          <mxGeometry x="330" y="280" width="80" height="30" as="geometry" />
        </mxCell>
        <mxCell id="VBAkpBCVjeTr1UJTXE4Z-17" value="" style="html=1;verticalLabelPosition=bottom;align=center;labelBackgroundColor=#ffffff;verticalAlign=top;strokeWidth=2;strokeColor=#d79b00;shadow=0;dashed=0;shape=mxgraph.ios7.icons.compose;fillColor=#ffe6cc;" vertex="1" parent="1">
          <mxGeometry x="272.95" y="573.13" width="44.1" height="51.25" as="geometry" />
        </mxCell>
        <mxCell id="VBAkpBCVjeTr1UJTXE4Z-25" value="&lt;font face=&quot;Work sans&quot;&gt;&lt;b&gt;&lt;i&gt;Claim&lt;/i&gt;&lt;/b&gt;&lt;/font&gt;" style="text;html=1;align=center;verticalAlign=middle;resizable=0;points=[];autosize=1;strokeColor=none;fillColor=none;" vertex="1" parent="1">
          <mxGeometry x="370" y="629.38" width="60" height="30" as="geometry" />
        </mxCell>
        <mxCell id="VBAkpBCVjeTr1UJTXE4Z-30" value="" style="shape=note;whiteSpace=wrap;html=1;backgroundOutline=1;darkOpacity=0.05;fillColor=#e1d5e7;strokeColor=#9673a6;" vertex="1" parent="1">
          <mxGeometry x="600" y="603.75" width="80" height="100" as="geometry" />
        </mxCell>
        <mxCell id="VBAkpBCVjeTr1UJTXE4Z-31" value="&lt;font face=&quot;Work sans&quot;&gt;&lt;b&gt;&lt;i&gt;Survey&lt;/i&gt;&lt;/b&gt;&lt;/font&gt;" style="text;html=1;align=center;verticalAlign=middle;resizable=0;points=[];autosize=1;strokeColor=none;fillColor=none;" vertex="1" parent="1">
          <mxGeometry x="605" y="633.13" width="60" height="30" as="geometry" />
        </mxCell>
        <mxCell id="VBAkpBCVjeTr1UJTXE4Z-32" value="" style="html=1;verticalLabelPosition=bottom;align=center;labelBackgroundColor=#ffffff;verticalAlign=top;strokeWidth=2;strokeColor=#d79b00;shadow=0;dashed=0;shape=mxgraph.ios7.icons.compose;fillColor=#ffe6cc;" vertex="1" parent="1">
          <mxGeometry x="522.5" y="573.13" width="44.1" height="51.25" as="geometry" />
        </mxCell>
        <mxCell id="VBAkpBCVjeTr1UJTXE4Z-35" value="" style="endArrow=none;dashed=1;html=1;dashPattern=1 3;strokeWidth=1.5;rounded=0;curved=0;" edge="1" parent="1">
          <mxGeometry width="50" height="50" relative="1" as="geometry">
            <mxPoint x="479" y="720" as="sourcePoint" />
            <mxPoint x="479" y="440" as="targetPoint" />
          </mxGeometry>
        </mxCell>
        <mxCell id="VBAkpBCVjeTr1UJTXE4Z-36" value="" style="edgeStyle=elbowEdgeStyle;elbow=horizontal;endArrow=classic;html=1;curved=0;rounded=0;endSize=8;startSize=8;" edge="1" parent="1">
          <mxGeometry width="50" height="50" relative="1" as="geometry">
            <mxPoint x="370" y="390" as="sourcePoint" />
            <mxPoint x="600" y="430" as="targetPoint" />
            <Array as="points">
              <mxPoint x="600" y="420" />
            </Array>
          </mxGeometry>
        </mxCell>
        <mxCell id="VBAkpBCVjeTr1UJTXE4Z-37" value="" style="endArrow=none;dashed=1;html=1;dashPattern=1 3;strokeWidth=1.5;rounded=0;curved=0;" edge="1" parent="1">
          <mxGeometry width="50" height="50" relative="1" as="geometry">
            <mxPoint y="440" as="sourcePoint" />
            <mxPoint x="690" y="438" as="targetPoint" />
          </mxGeometry>
        </mxCell>
        <mxCell id="VBAkpBCVjeTr1UJTXE4Z-38" value="" style="endArrow=none;dashed=1;html=1;dashPattern=1 3;strokeWidth=1.5;rounded=0;curved=0;" edge="1" parent="1">
          <mxGeometry width="50" height="50" relative="1" as="geometry">
            <mxPoint y="721" as="sourcePoint" />
            <mxPoint x="690" y="720.5" as="targetPoint" />
          </mxGeometry>
        </mxCell>
        <mxCell id="VBAkpBCVjeTr1UJTXE4Z-39" value="" style="endArrow=none;dashed=1;html=1;dashPattern=1 3;strokeWidth=1.5;rounded=0;curved=0;" edge="1" parent="1">
          <mxGeometry width="50" height="50" relative="1" as="geometry">
            <mxPoint x="690" y="717.5" as="sourcePoint" />
            <mxPoint x="690" y="437.5" as="targetPoint" />
          </mxGeometry>
        </mxCell>
        <mxCell id="VBAkpBCVjeTr1UJTXE4Z-41" value="" style="edgeStyle=segmentEdgeStyle;endArrow=classic;html=1;curved=0;rounded=0;endSize=8;startSize=8;" edge="1" parent="1">
          <mxGeometry width="50" height="50" relative="1" as="geometry">
            <mxPoint x="370" y="390" as="sourcePoint" />
            <mxPoint x="100" y="430" as="targetPoint" />
          </mxGeometry>
        </mxCell>
        <mxCell id="VBAkpBCVjeTr1UJTXE4Z-42" value="" style="endArrow=classic;html=1;rounded=0;" edge="1" parent="1">
          <mxGeometry width="50" height="50" relative="1" as="geometry">
            <mxPoint x="370" y="390" as="sourcePoint" />
            <mxPoint x="370" y="430" as="targetPoint" />
          </mxGeometry>
        </mxCell>
        <mxCell id="VBAkpBCVjeTr1UJTXE4Z-44" value="" style="whiteSpace=wrap;html=1;shape=mxgraph.basic.cloud_callout;fillColor=#ffe6cc;strokeColor=#d79b00;" vertex="1" parent="1">
          <mxGeometry x="534" y="441.25" width="146" height="108.75" as="geometry" />
        </mxCell>
        <mxCell id="VBAkpBCVjeTr1UJTXE4Z-46" value="" style="strokeWidth=2;html=1;shape=mxgraph.flowchart.annotation_2;align=left;labelPosition=right;pointerEvents=1;direction=south;" vertex="1" parent="1">
          <mxGeometry x="560" y="460.63" width="60" height="30" as="geometry" />
        </mxCell>
        <mxCell id="VBAkpBCVjeTr1UJTXE4Z-47" value="" style="strokeWidth=2;html=1;shape=mxgraph.flowchart.annotation_2;align=left;labelPosition=right;pointerEvents=1;direction=south;" vertex="1" parent="1">
          <mxGeometry x="590" y="480.63" width="60" height="30" as="geometry" />
        </mxCell>
        <mxCell id="VBAkpBCVjeTr1UJTXE4Z-50" value="" style="html=1;verticalLabelPosition=bottom;align=center;labelBackgroundColor=#ffffff;verticalAlign=top;strokeWidth=2;strokeColor=#d6b656;shadow=0;dashed=0;shape=mxgraph.ios7.icons.messages;fillColor=#fff2cc;" vertex="1" parent="1">
          <mxGeometry x="357.05" y="478.75" width="92.95" height="71.25" as="geometry" />
        </mxCell>
        <mxCell id="VBAkpBCVjeTr1UJTXE4Z-51" value="" style="html=1;verticalLabelPosition=bottom;align=center;labelBackgroundColor=#ffffff;verticalAlign=top;strokeWidth=2;strokeColor=#0080F0;shadow=0;dashed=0;shape=mxgraph.ios7.icons.forward;direction=north;" vertex="1" parent="1">
          <mxGeometry x="393.2" y="558.75" width="16.8" height="30" as="geometry" />
        </mxCell>
        <mxCell id="VBAkpBCVjeTr1UJTXE4Z-52" value="&lt;font face=&quot;Work sans&quot;&gt;&lt;b&gt;rectify APE&lt;/b&gt;&lt;/font&gt;" style="text;html=1;align=center;verticalAlign=middle;resizable=0;points=[];autosize=1;strokeColor=none;fillColor=none;fontFamily=Helvetica;fontSize=12;fontColor=default;" vertex="1" parent="1">
          <mxGeometry x="370" y="499.38" width="90" height="30" as="geometry" />
        </mxCell>
        <mxCell id="VBAkpBCVjeTr1UJTXE4Z-53" value="" style="endArrow=none;dashed=1;html=1;dashPattern=1 3;strokeWidth=1.5;rounded=0;curved=0;" edge="1" parent="1">
          <mxGeometry width="50" height="50" relative="1" as="geometry">
            <mxPoint x="-1.1100000000000136" y="717.5" as="sourcePoint" />
            <mxPoint x="-1.1100000000000136" y="437.5" as="targetPoint" />
          </mxGeometry>
        </mxCell>
        <mxCell id="VBAkpBCVjeTr1UJTXE4Z-54" value="&lt;font face=&quot;Work sans&quot;&gt;&lt;b&gt;&lt;span&gt;creation, change ...&lt;/span&gt;&lt;/b&gt;&lt;/font&gt;" style="text;html=1;align=center;verticalAlign=middle;resizable=0;points=[];autosize=1;strokeColor=none;fillColor=none;fontStyle=0" vertex="1" parent="1">
          <mxGeometry y="550" width="130" height="30" as="geometry" />
        </mxCell>
        <mxCell id="VBAkpBCVjeTr1UJTXE4Z-55" value="&lt;font face=&quot;Work sans&quot;&gt;&lt;b&gt;&lt;span&gt;disagreement&lt;/span&gt;&lt;/b&gt;&lt;/font&gt;" style="text;html=1;align=center;verticalAlign=middle;resizable=0;points=[];autosize=1;strokeColor=none;fillColor=none;fontStyle=0" vertex="1" parent="1">
          <mxGeometry x="240" y="550" width="100" height="30" as="geometry" />
        </mxCell>
        <mxCell id="VBAkpBCVjeTr1UJTXE4Z-56" value="&lt;font face=&quot;Work sans&quot;&gt;&lt;b&gt;&lt;span&gt;activity breakdown&lt;/span&gt;&lt;/b&gt;&lt;/font&gt;" style="text;html=1;align=center;verticalAlign=middle;resizable=0;points=[];autosize=1;strokeColor=none;fillColor=none;fontStyle=0" vertex="1" parent="1">
          <mxGeometry x="474.55" y="550" width="140" height="30" as="geometry" />
        </mxCell>
      </root>
    </mxGraphModel>
  </diagram>
</mxfile>
